# xmcd
#
# Track frame offsets:
#	150
#	28525
#	48577
#	67810
#	89886
#	110358
#	135155
#	157957
#	182917
#	207043
#
# Disc length: 3111 seconds
#
# Revision: 1
# Processed by: cddbd v1.5.2PL0 Copyright (c) Steve Scherf et al.
# Submitted via: EZCDAudioConverter 8.0.2.1
#
DISCID=7f0c250a
DTITLE=Hương Lan - Bài Tình Ca Cho Anh
DYEAR=1996
DGENRE=country
TTITLE0=Bài Tình Ca Cho Anh
TTITLE1=Hoa học trò
TTITLE2=làng tôi
TTITLE3=Hỡi người tình
TTITLE4=Tiếng mưa đêm
TTITLE5=Tiêng còi trong sương đêm
TTITLE6=Tưởng niệm
TTITLE7=Sàu vẫn dâng đầy
TTITLE8=Hai năm tình lận đận
TTITLE9=Bài buồn cho em
EXTD=
EXTT0=
EXTT1=
EXTT2=
EXTT3=
EXTT4=
EXTT5=
EXTT6=
EXTT7=
EXTT8=
EXTT9=
PLAYORDER=
